<?xml version="1.0" encoding="UTF-8" standalone="no"?>
<!-- Created with Inkscape (http://www.inkscape.org/) -->

<svg
   xmlns:dc="http://purl.org/dc/elements/1.1/"
   xmlns:cc="http://creativecommons.org/ns#"
   xmlns:rdf="http://www.w3.org/1999/02/22-rdf-syntax-ns#"
   xmlns:svg="http://www.w3.org/2000/svg"
   xmlns="http://www.w3.org/2000/svg"
   xmlns:sodipodi="http://sodipodi.sourceforge.net/DTD/sodipodi-0.dtd"
   xmlns:inkscape="http://www.inkscape.org/namespaces/inkscape"
   width="512"
   height="512"
   id="svg2"
   sodipodi:version="0.32"
   inkscape:version="0.91 r13725"
   version="1.0"
   sodipodi:docname="icon.svg"
   inkscape:output_extension="org.inkscape.output.svg.inkscape"
   inkscape:export-filename="C:\Users\ivang\Workspace\vscode-git-automator\res\icon.png"
   inkscape:export-xdpi="45"
   inkscape:export-ydpi="45">
  <defs
     id="defs4" />
  <sodipodi:namedview
     id="base"
     pagecolor="#ffffff"
     bordercolor="#666666"
     borderopacity="1.0"
     gridtolerance="10000"
     guidetolerance="10"
     objecttolerance="10"
     inkscape:pageopacity="0"
     inkscape:pageshadow="2"
     inkscape:zoom="0.7"
     inkscape:cx="147.27708"
     inkscape:cy="301.8057"
     inkscape:document-units="px"
     inkscape:current-layer="layer3"
     width="512px"
     height="512px"
     inkscape:window-width="1600"
     inkscape:window-height="837"
     inkscape:window-x="1912"
     inkscape:window-y="-8"
     showgrid="false"
     inkscape:window-maximized="1" />
  <metadata
     id="metadata7">
    <rdf:RDF>
      <cc:Work
         rdf:about="">
        <dc:format>image/svg+xml</dc:format>
        <dc:type
           rdf:resource="http://purl.org/dc/dcmitype/StillImage" />
        <dc:title></dc:title>
      </cc:Work>
    </rdf:RDF>
  </metadata>
  <g
     inkscape:groupmode="layer"
     id="layer3"
     inkscape:label="Gear">
    <g
       transform="translate(0,-87.219299)"
       style=""
       id="g2246">
      <path
         style="fill:#f05133;fill-opacity:1"
         d="m 238.4853,598.94824 c -0.47235,-0.19462 -1.11189,-1.03713 -1.52347,-2.00688 -0.39015,-0.91927 -1.02178,-2.07257 -1.40362,-2.56285 -0.38185,-0.49027 -0.95616,-1.80127 -1.27623,-2.91329 -0.32008,-1.11203 -0.97432,-2.54142 -1.45386,-3.17643 -0.47955,-0.63498 -1.13801,-1.94915 -1.46325,-2.92034 -0.32524,-0.9712 -0.97796,-2.35969 -1.45048,-3.08557 -0.47252,-0.72591 -1.09325,-2.10551 -1.37941,-3.06587 -0.28616,-0.96033 -0.90583,-2.33447 -1.37705,-3.05362 -0.47122,-0.7192 -1.10365,-2.14729 -1.40541,-3.17359 -0.30176,-1.02625 -1.02866,-2.55373 -1.61535,-3.39439 -0.58668,-0.84063 -1.23483,-2.18301 -1.44032,-2.9831 -0.20549,-0.80008 -0.77571,-2.00515 -1.26714,-2.67788 -0.49142,-0.67277 -1.14863,-2.10952 -1.46043,-3.19283 -0.3118,-1.0833 -0.97061,-2.58575 -1.46399,-3.33877 -0.49338,-0.75301 -1.13066,-2.15305 -1.41618,-3.1112 -0.28552,-0.9582 -0.90852,-2.31529 -1.38445,-3.01577 -0.47594,-0.70048 -1.19877,-2.18167 -1.6063,-3.29154 -0.84631,-2.30484 -1.74919,-3.29496 -3.77914,-4.14427 -0.78429,-0.32812 -2.10768,-0.90786 -2.94087,-1.2883 -0.83319,-0.3804 -2.79504,-0.93694 -4.35966,-1.23671 -1.56464,-0.29976 -3.69998,-0.93655 -4.74522,-1.41508 -1.04525,-0.47849 -3.26872,-1.12875 -4.94106,-1.445 -1.67234,-0.31628 -3.80921,-0.98087 -4.7486,-1.4769 -0.93938,-0.49606 -2.39542,-0.99706 -3.23562,-1.11337 -1.30019,-0.17999 -1.6938,-0.0702 -2.64373,0.73704 -0.61386,0.52168 -1.97487,1.33315 -3.02448,1.80323 -1.0496,0.47008 -2.22705,1.21228 -2.61655,1.64931 -0.38949,0.43706 -1.249,1.02286 -1.91,1.30181 -0.66101,0.27892 -1.6898,0.92188 -2.28621,1.42871 -0.59639,0.50686 -1.66857,1.16806 -2.38262,1.46931 -0.71405,0.30125 -1.7007,0.92766 -2.19257,1.39204 -0.49186,0.46436 -1.55694,1.17962 -2.36684,1.5894 -0.80989,0.40978 -1.93671,1.13703 -2.50404,1.61615 -0.56732,0.47907 -1.40427,0.98893 -1.85987,1.13302 -0.45559,0.14408 -1.36281,0.73591 -2.01602,1.31514 -0.65321,0.57927 -1.80969,1.31212 -2.56996,1.62861 -0.76029,0.31645 -1.75025,0.91873 -2.19995,1.33841 -0.78435,0.73198 -1.67334,1.29579 -5.80861,3.68388 -1.03229,0.59613 -2.40014,1.53152 -3.03969,2.07862 -0.63954,0.54712 -1.78483,1.25323 -2.5451,1.56911 -0.76028,0.31591 -1.78475,0.95707 -2.27662,1.42484 -0.49186,0.46773 -1.45939,1.08887 -2.15006,1.38025 -0.69066,0.29139 -1.6987,0.94439 -2.24009,1.45114 -1.17352,1.09848 -3.43343,1.85109 -4.63993,1.54522 -0.47704,-0.12096 -1.49771,-0.72594 -2.26816,-1.34455 -0.77044,-0.61858 -1.96421,-1.36249 -2.65282,-1.65314 -0.68862,-0.29067 -1.65446,-0.90776 -2.14632,-1.3713 -0.49187,-0.46354 -1.42994,-1.11593 -2.08461,-1.44976 -0.65466,-0.33381 -1.91454,-1.16529 -2.79973,-1.84771 -0.88518,-0.68244 -1.8136,-1.24078 -2.06316,-1.24078 -0.24955,0 -0.76039,-0.34294 -1.13518,-0.76209 -0.3748,-0.41917 -1.56681,-1.21431 -2.64891,-1.76697 -1.08211,-0.55268 -2.2608,-1.33296 -2.61933,-1.73397 -0.35853,-0.401 -1.1634,-0.93622 -1.7886,-1.18941 -0.6252,-0.2532 -1.60236,-0.84613 -2.17146,-1.31757 -0.56909,-0.47146 -1.8103,-1.25417 -2.75823,-1.73932 -2.32923,-1.19208 -2.65555,-2.39042 -2.12115,-7.78944 0.38756,-3.91535 0.56298,-5.00641 1.591,-9.89509 0.2925,-1.39098 0.78297,-5.45555 1.08994,-9.03236 0.30696,-3.57682 0.95674,-8.46294 1.44396,-10.85806 0.48721,-2.39509 1.12404,-7.19128 1.41518,-10.65819 0.29113,-3.46688 0.84125,-7.83438 1.22248,-9.70557 0.38122,-1.87114 0.59569,-3.65955 0.47659,-3.97424 -0.25757,-0.68049 -2.29489,-3.41542 -3.50913,-4.7107 -2.6556,-2.83287 -11.068368,-12.62749 -12.981672,-15.11399 -0.655622,-0.85205 -1.811171,-1.86819 -2.567888,-2.2581 -1.333146,-0.68693 -2.266126,-0.70893 -30.058783,-0.70893 l -28.682929,0 -1.690705,-1.71615 c -1.283334,-1.30265 -1.837801,-2.23103 -2.301184,-3.85306 -0.335761,-1.17529 -1.005681,-2.71982 -1.488707,-3.4323 -0.483027,-0.71247 -1.118571,-2.1226 -1.412321,-3.13369 -0.293749,-1.01108 -0.928831,-2.37869 -1.411293,-3.03917 -0.482462,-0.66049 -1.13232,-2.0872 -1.444129,-3.1705 -0.31181,-1.08331 -0.970603,-2.58576 -1.463988,-3.33877 -0.493384,-0.75301 -1.131191,-2.15479 -1.417348,-3.11515 -0.286159,-0.96032 -0.927823,-2.36803 -1.425922,-3.12824 -1.097987,-1.67575 -2.118746,-5.62581 -1.792776,-6.93757 0.130396,-0.52475 0.754371,-1.49731 1.386593,-2.16127 0.632221,-0.66394 1.954363,-2.21447 2.938093,-3.44562 2.038131,-2.55074 4.663134,-5.70312 6.3565,-7.63353 0.635587,-0.72456 1.799509,-2.06568 2.586493,-2.98026 0.786983,-0.91459 1.994287,-2.28941 2.682898,-3.05518 0.68861,-0.76576 2.056888,-2.41805 3.040617,-3.67174 1.946296,-2.4804 6.526192,-7.98696 8.559865,-10.29182 1.298687,-1.47186 1.890001,-2.15508 6.953946,-8.03472 1.879928,-2.18273 2.951441,-3.75041 3.096224,-4.52988 0.306177,-1.64837 -0.457137,-9.58978 -1.257931,-13.08731 -0.700971,-3.06157 -1.227068,-6.6233 -1.754437,-11.87769 -0.368863,-3.67509 -0.872793,-4.59339 -3.316472,-6.04349 -0.879418,-0.52186 -2.023207,-1.37732 -2.541742,-1.90105 -0.51854,-0.52372 -1.179249,-0.95221 -1.468239,-0.95221 -0.288992,0 -1.253428,-0.56124 -2.143193,-1.2472 -0.889766,-0.68596 -2.240898,-1.56828 -3.002519,-1.96072 -0.761621,-0.39243 -1.604688,-0.98115 -1.873483,-1.30826 -0.268793,-0.32712 -1.11186,-0.91584 -1.873482,-1.30828 -0.76162,-0.39242 -2.112753,-1.27475 -3.002519,-1.9607 -0.889765,-0.68597 -1.818824,-1.24721 -2.064577,-1.24721 -0.245753,0 -0.837074,-0.42853 -1.31405,-0.95231 -0.476974,-0.52378 -1.544199,-1.25981 -2.371609,-1.63562 -0.827412,-0.37582 -1.95423,-1.06313 -2.504038,-1.52737 -0.54981,-0.46425 -1.654318,-1.17957 -2.454463,-1.58964 -0.800146,-0.41005 -1.674733,-1.01318 -1.943528,-1.3403 -0.268795,-0.32712 -1.143382,-0.92592 -1.943528,-1.33069 -0.800145,-0.40477 -1.857244,-1.11588 -2.349109,-1.58024 -0.491864,-0.46438 -1.460976,-1.08341 -2.153581,-1.37561 -0.692604,-0.2922 -1.57796,-0.88886 -1.967459,-1.3259 -0.389496,-0.43705 -1.5130451,-1.15579 -2.4967741,-1.59724 -0.98373,-0.44144 -2.019949,-1.08545 -2.302708,-1.43116 -0.28276,-0.3457 -1.261077,-1.01084 -2.174035,-1.47809 -1.6638115,-0.85155 -3.25952194,-2.5795 -3.70923574,-4.01666 -0.1331461,-0.4255 0.2486281,-3.08275 0.8564808,-5.96136 0.60318914,-2.85653 1.33774154,-7.87628 1.63233874,-11.15503 0.2945972,-3.27875 0.7809935,-6.93685 1.0808802,-8.12913 0.299887,-1.19227 0.851699,-3.87488 1.226248,-5.96136 0.807565,-4.49863 1.040951,-4.76924 4.629602,-5.36782 1.4050751,-0.23435 3.3107141,-0.82533 4.2347521,-1.31326 0.924039,-0.48794 3.036222,-1.14694 4.693739,-1.46446 1.657518,-0.31752 3.750178,-0.95363 4.650357,-1.41359 0.900178,-0.45995 3.004966,-1.11231 4.677305,-1.44967 1.67234,-0.33736 3.896522,-1.0161 4.942625,-1.50829 1.046104,-0.49218 3.111091,-1.12854 4.588856,-1.41411 1.477766,-0.28556 3.760852,-0.98897 5.073526,-1.56313 1.312674,-0.57414 3.495575,-1.23347 4.850889,-1.46515 1.355315,-0.23169 3.24675,-0.82176 4.203188,-1.31127 0.95644,-0.48951 2.980382,-1.12991 4.497646,-1.42311 4.258722,-0.82297 4.933317,-1.15123 7.000734,-3.4066 1.483209,-1.61805 2.063313,-2.59404 2.520937,-4.2413 0.326923,-1.17679 0.993716,-2.68626 1.481761,-3.35438 0.488042,-0.66812 1.142466,-2.10111 1.454276,-3.1844 0.31181,-1.0833 0.95583,-2.56319 1.431158,-3.28864 0.475331,-0.72546 1.094568,-2.09199 1.376086,-3.03676 0.281519,-0.94475 1.049869,-2.56432 1.70744,-3.59903 1.118784,-1.76043 1.195582,-2.08105 1.195582,-4.99135 0,-2.87293 -0.08766,-3.25262 -1.149571,-4.97941 -0.632263,-1.02814 -1.398123,-2.71466 -1.701909,-3.74785 -0.303787,-1.03319 -0.963612,-2.47792 -1.466276,-3.21051 -0.502665,-0.7326 -1.135276,-2.17944 -1.405807,-3.21521 -0.270529,-1.03579 -0.882194,-2.47895 -1.359256,-3.20704 -0.477058,-0.7281 -1.140814,-2.27377 -1.475007,-3.43484 -0.334192,-1.16109 -1.011303,-2.72714 -1.504687,-3.48015 -0.493381,-0.753 -1.131188,-2.15482 -1.417345,-3.11516 -0.286159,-0.96033 -0.909192,-2.33961 -1.384523,-3.06505 -0.475328,-0.72545 -1.119348,-2.20534 -1.431158,-3.28864 -0.31181,-1.08331 -0.961665,-2.51003 -1.444129,-3.17051 -0.482464,-0.66047 -1.132319,-2.08721 -1.444129,-3.1705 -0.31181,-1.08331 -0.970605,-2.58574 -1.463989,-3.33875 -0.493381,-0.753 -1.131188,-2.15482 -1.417346,-3.11516 -0.286158,-0.96033 -0.923925,-2.36208 -1.417261,-3.11502 -0.968545,-1.4782 -1.710458,-4.56418 -1.344582,-5.5928 0.124372,-0.34966 0.723562,-1.1423 1.33154,-1.76144 0.607977,-0.61914 1.699812,-1.83851 2.426305,-2.70971 0.72649,-0.8712 2.175254,-2.61086 3.219478,-3.86591 6.30931,-7.58312 11.401479,-13.42244 14.629828,-16.77638 2.37351,-2.46585 3.041204,-2.57398 6.294715,-1.01941 1.217223,0.58159 3.631831,1.3231 5.365796,1.64779 1.733963,0.32469 4.010023,0.98344 5.057906,1.46391 1.047886,0.48048 3.274448,1.11497 4.94792,1.40999 1.67347,0.29501 3.92083,0.94244 4.99412,1.43871 1.073278,0.49628 2.549118,0.99965 3.279628,1.11861 2.93936,0.47865 5.00752,1.03055 7.01665,1.87246 1.16119,0.4866 3.47959,1.12594 5.15201,1.42077 1.67242,0.29485 3.78735,0.91817 4.69984,1.38519 0.9125,0.46703 3.11296,1.10253 4.8899,1.41225 1.77695,0.30971 3.94361,0.88972 4.8148,1.28889 2.12376,0.97311 3.40667,0.9289 4.68982,-0.16158 0.58456,-0.49678 1.27961,-0.90324 1.54455,-0.90324 0.26496,0 1.2453,-0.58866 2.17854,-1.30815 0.93325,-0.71948 2.1964,-1.51897 2.807,-1.77664 0.6106,-0.25768 1.42886,-0.83069 1.81835,-1.27338 0.38951,-0.44267 1.38516,-1.11083 2.21257,-1.48479 0.8274,-0.37397 1.95422,-1.05911 2.50403,-1.52254 0.54982,-0.46343 1.56307,-1.12793 2.25168,-1.47663 0.68861,-0.34871 1.65445,-1.00641 2.14632,-1.46157 0.49186,-0.45516 1.65587,-1.18467 2.58665,-1.62114 2.07923,-0.97499 2.94748,-2.32319 3.48884,-5.4173 0.226,-1.29163 0.71101,-3.56778 1.07783,-5.05812 0.3668,-1.49034 0.92755,-5.42393 1.24609,-8.74131 0.31854,-3.31739 0.96071,-7.62583 1.42703,-9.5743 0.46631,-1.94849 1.10928,-6.22532 1.42879,-9.50407 0.31952,-3.27875 0.98074,-7.6442 1.4694,-9.70099 0.48866,-2.0568 1.05376,-5.47103 1.25577,-7.58719 0.6108,-6.398366 0.94275,-6.937981 4.81459,-7.82652 1.36912,-0.31421 3.61615,-1.034531 4.99337,-1.600722 1.37722,-0.566192 3.38939,-1.144321 4.47149,-1.284721 1.08211,-0.140471 3.01379,-0.713845 4.29264,-1.2743 1.27885,-0.560454 3.76735,-1.291527 5.53,-1.624611 1.76266,-0.333085 3.98194,-1.016004 4.93173,-1.517596 0.96329,-0.508732 2.90955,-1.084072 4.40148,-1.301167 l 2.67459,-0.389157 2.16029,2.330725 c 1.18816,1.281902 2.7687,2.981071 3.51231,3.775919 1.98682,2.123718 11.81813,13.458 13.35418,15.3957 0.72658,0.91659 2.17353,2.58292 3.21543,3.70299 1.04188,1.12006 2.53823,2.79693 3.32522,3.7264 1.50967,1.78298 3.35411,3.85615 5.72351,6.43331 0.78699,0.85599 2.07478,2.32383 2.86176,3.26187 3.51772,4.19292 5.72824,6.24463 7.15439,6.64039 0.91497,0.2539 6.02707,0.39778 14.17827,0.39907 l 12.74738,0.001 1.91913,-1.61762 c 1.05551,-0.88969 2.72399,-2.6109 3.70772,-3.82489 2.47446,-3.05368 10.03182,-11.81705 13.34745,-15.47747 1.51247,-1.66975 3.27857,-3.62074 3.9247,-4.33554 2.39535,-2.64996 9.6018,-11.096724 10.51018,-12.319113 0.51685,-0.695492 1.96254,-2.354702 3.21265,-3.687141 1.25013,-1.332426 2.53611,-2.795669 2.85775,-3.251651 0.88217,-1.250614 4.65262,-1.137298 7.82162,0.235072 1.27884,0.553821 3.61296,1.284908 5.18693,1.624641 1.57397,0.339718 3.96601,1.064764 5.31565,1.6112 1.34961,0.546436 3.76422,1.243041 5.36579,1.548032 1.60154,0.304976 3.66414,0.93938 4.58352,1.4098 0.91938,0.47042 2.82501,1.047682 4.23474,1.282827 1.40973,0.23513 2.87679,0.685852 3.26012,1.001581 0.5044,0.415445 0.8851,1.622154 1.37796,4.367642 0.37455,2.08648 0.92717,4.76909 1.22804,5.96136 0.30087,1.19228 0.80659,4.85038 1.12378,8.12913 0.31723,3.27875 0.96181,7.58719 1.43239,9.57431 0.47058,1.98712 1.10386,6.21426 1.40724,9.39366 0.30341,3.17939 0.94534,7.48783 1.42651,9.5743 0.48116,2.08648 1.04984,5.56472 1.26375,7.72944 0.50643,5.12461 1.21961,6.4525 4.28906,7.98586 0.68861,0.344 1.65446,1.00472 2.14632,1.46827 0.49187,0.46356 1.49194,1.09497 2.22244,1.40316 0.73047,0.30818 1.85728,1.02649 2.50404,1.59625 0.64673,0.56975 1.54867,1.15347 2.00428,1.29718 0.45557,0.14365 1.36279,0.73521 2.01603,1.31446 0.6532,0.57926 1.75546,1.29283 2.44951,1.58571 0.69402,0.2929 1.79462,1.02398 2.44577,1.62464 0.65112,0.60066 1.36735,1.09212 1.59157,1.09212 0.22422,0 1.01532,0.48775 1.75805,1.08389 1.60004,1.28425 2.68984,1.35539 5.23587,0.3418 1.02522,-0.40814 3.1641,-0.98968 4.75306,-1.2923 1.58892,-0.30263 4.0158,-0.99932 5.39302,-1.54823 1.37722,-0.54889 3.64588,-1.18406 5.04144,-1.41148 1.39561,-0.22741 3.41906,-0.82112 4.49658,-1.31936 1.07749,-0.49822 3.2407,-1.13185 4.80707,-1.40804 1.56638,-0.27618 3.9191,-0.93495 5.22826,-1.46393 1.30918,-0.52898 3.71871,-1.21509 5.35453,-1.52471 1.63585,-0.3096 3.79255,-0.95197 4.79264,-1.42745 1.00016,-0.47549 3.24187,-1.11524 4.98169,-1.42166 1.73977,-0.30644 3.89951,-0.93026 4.79939,-1.38632 4.29614,-2.17716 5.07409,-1.85829 9.86372,4.04282 0.39349,0.48481 1.3051,1.55108 2.02584,2.36948 0.72073,0.81841 2.16949,2.47604 3.21947,3.68363 1.04998,1.20759 2.34755,2.67084 2.88341,3.25165 0.9057,0.98164 3.91305,4.51744 8.41581,9.89457 1.53362,1.83142 1.87803,2.49008 1.87803,3.59145 0,1.82341 -0.9437,4.91071 -1.98846,6.50523 -0.47122,0.71918 -1.0909,2.09332 -1.37704,3.05365 -0.28617,0.96034 -0.92399,2.36216 -1.41735,3.11516 -0.49341,0.75301 -1.15218,2.25544 -1.46401,3.33875 -0.31179,1.08329 -0.96165,2.51003 -1.44411,3.1705 -0.48246,0.66048 -1.11755,2.02811 -1.41128,3.03917 -0.29376,1.01107 -0.92592,2.41621 -1.40479,3.12252 -0.47892,0.70632 -1.11098,2.10135 -1.40464,3.10005 -0.29364,0.99871 -1.02207,2.69697 -1.61871,3.77391 -0.59663,1.07694 -1.19388,2.56307 -1.32721,3.30251 -0.13321,0.73945 -0.70295,2.07796 -1.26586,2.97447 -0.56295,0.89651 -1.27414,2.5007 -1.58044,3.56486 -0.30628,1.06417 -0.95164,2.47524 -1.4341,3.13572 -0.48247,0.66047 -1.11914,2.0281 -1.41483,3.03917 -0.29569,1.01107 -1.02322,2.56993 -1.61673,3.46413 -1.50562,2.2683 -1.51102,4.67158 -0.0156,6.90055 0.5867,0.87442 1.32328,2.47018 1.63687,3.54612 0.31356,1.07593 0.96534,2.53918 1.44836,3.25165 0.48304,0.71247 1.11859,2.12263 1.41235,3.13371 0.29373,1.01106 0.92881,2.37869 1.41128,3.03917 0.48246,0.66047 1.1251,2.06218 1.42812,3.11489 0.30298,1.05273 1.06003,2.77416 1.68225,3.82543 0.62222,1.05127 1.32371,2.24021 1.55887,2.6421 0.69813,1.19316 3.81143,2.66243 6.8924,3.25271 1.58466,0.30362 3.74519,0.95153 4.8012,1.43982 1.05603,0.48828 3.26739,1.14594 4.91411,1.46143 1.64676,0.31551 3.74271,0.95681 4.65773,1.42511 0.91502,0.46829 2.97744,1.10317 4.58325,1.41082 1.60576,0.30765 3.69842,0.95798 4.65035,1.44518 0.95189,0.4872 3.08691,1.14559 4.7444,1.46312 1.65754,0.31752 3.74465,0.96328 4.63805,1.43504 0.89345,0.47177 3.05106,1.12776 4.79481,1.45777 1.7437,0.33 3.91914,0.98324 4.8343,1.45162 0.91518,0.46838 2.29895,0.96159 3.07506,1.09601 3.69929,0.64072 4.0481,0.83114 5.00063,2.72962 1.13448,2.26112 1.48025,4.10362 2.14592,11.43483 0.29262,3.22262 0.92408,7.69364 1.40328,9.9356 0.99513,4.65599 1.81138,11.76936 1.49608,13.03813 -0.34384,1.38361 -1.61005,2.7429 -3.41618,3.66728 -0.92749,0.4747 -1.90693,1.13152 -2.17652,1.45962 -0.26961,0.32808 -1.11332,0.91761 -1.87495,1.31004 -0.76162,0.39243 -2.11275,1.27476 -3.00252,1.96071 -0.88976,0.68597 -1.8465,1.24721 -2.1261,1.24721 -0.2796,0 -1.10568,0.56903 -1.83571,1.26453 -0.73008,0.69549 -1.52299,1.26453 -1.76203,1.26453 -0.23906,0 -1.16266,0.56123 -2.05241,1.2472 -0.88976,0.68595 -2.2409,1.56828 -3.00251,1.9607 -0.76163,0.39244 -1.60471,0.98116 -1.8735,1.30828 -0.26879,0.32712 -1.11186,0.91584 -1.87349,1.30826 -0.76161,0.39244 -2.11275,1.27476 -3.00251,1.96072 -0.88977,0.68597 -1.81884,1.2472 -2.06457,1.2472 -0.24576,0 -0.83707,0.42854 -1.31407,0.95232 -0.47698,0.52376 -1.54419,1.25979 -2.37161,1.63561 -0.82739,0.37581 -1.95421,1.06314 -2.50403,1.52738 -0.54981,0.46423 -1.65432,1.17956 -2.45446,1.58962 -0.80015,0.41005 -1.67538,1.01399 -1.94498,1.34209 -0.26959,0.32809 -1.22466,0.97274 -2.1224,1.43254 -0.8977,0.45979 -1.91866,1.15621 -2.2688,1.54759 -0.35013,0.39139 -1.28872,1.00859 -2.08576,1.37159 -1.14327,0.5207 -1.65992,1.08409 -2.44808,2.66944 -1.05882,2.12971 -1.50709,4.70879 -2.17035,12.48697 -0.20333,2.38454 -0.78793,6.10923 -1.29911,8.27707 -1.31415,5.57348 -1.30342,7.33454 0.0547,8.96878 0.59023,0.71026 1.87802,2.29813 2.86175,3.52862 1.96295,2.45533 4.2143,5.17248 6.13676,7.40651 0.68396,0.79484 1.83667,2.1358 2.56148,2.97988 0.72484,0.84409 1.96181,2.25097 2.74879,3.1264 0.78699,0.87543 2.23575,2.60422 3.21948,3.84177 2.87052,3.61114 6.85327,8.3675 10.88073,12.99415 5.05626,5.80856 7.13561,8.27375 7.86092,9.31952 0.94936,1.36883 1.06131,3.11761 0.29634,4.62872 -0.29107,0.57501 -0.6381,1.55635 -0.77115,2.18074 -0.13307,0.62435 -0.71053,1.88158 -1.28331,2.79378 -0.57278,0.91224 -1.29205,2.52928 -1.59836,3.59343 -0.30628,1.06416 -0.95164,2.47523 -1.4341,3.13572 -0.48246,0.66048 -1.13233,2.0872 -1.44411,3.17051 -0.31184,1.0833 -0.95587,2.56319 -1.43117,3.28865 -0.47534,0.72543 -1.09838,2.10471 -1.38452,3.06503 -0.28617,0.96036 -0.90865,2.33996 -1.38327,3.06587 -0.47465,0.72589 -1.06704,1.97011 -1.31644,2.76496 -0.64515,2.05594 -1.28717,2.96409 -2.61285,3.69576 -1.07434,0.59291 -3.28931,0.653 -30.24396,0.82042 l -29.08472,0.18065 -2.13454,2.34842 c -1.17401,1.29162 -2.81498,3.12175 -3.64664,4.06702 -3.26018,3.70543 -4.06405,4.62543 -5.34924,6.12235 -0.73317,0.85398 -1.89475,2.20303 -2.58126,2.99788 -3.74794,4.33936 -4.88974,5.81593 -5.07551,6.56335 -0.28456,1.14518 0.8558,14.23247 1.50757,17.30112 1.08751,5.12017 1.25009,6.25564 1.75602,12.26498 0.28441,3.37811 0.91662,8.11663 1.40491,10.53 0.84231,4.16342 1.99621,14.74892 1.99621,18.31273 0,2.15572 -0.56494,3.3425 -1.84633,3.87856 -0.57092,0.23889 -1.62493,0.90534 -2.34221,1.48105 -0.71725,0.57569 -1.95973,1.34315 -2.76099,1.70546 -0.80129,0.36227 -1.77558,1.02087 -2.16506,1.46357 -0.38947,0.44266 -1.20777,1.01567 -1.81835,1.27335 -0.6106,0.25767 -1.87375,1.05718 -2.807,1.77666 -0.93326,0.71948 -1.92739,1.30814 -2.20925,1.30814 -0.28184,0 -1.03229,0.50177 -1.66769,1.11506 -0.63536,0.61326 -1.69862,1.34435 -2.36276,1.62464 -0.66415,0.28025 -1.74198,0.98352 -2.39518,1.56277 -0.65324,0.57923 -1.56046,1.17038 -2.01604,1.31364 -0.4556,0.14322 -1.4195,0.79608 -2.14197,1.4507 -0.88624,0.80306 -1.83301,1.26894 -2.91029,1.43207 -1.71193,0.25929 -2.54721,-0.035 -4.31514,-1.52069 -0.5648,-0.4746 -1.61113,-1.10943 -2.32518,-1.41068 -0.71404,-0.30125 -1.7007,-0.93694 -2.19257,-1.41262 -0.49186,-0.47568 -1.47852,-1.11138 -2.19257,-1.41263 -0.71404,-0.30125 -1.76037,-0.93734 -2.32518,-1.41353 -0.5648,-0.47619 -1.59031,-1.15538 -2.27892,-1.50937 -0.68861,-0.354 -1.71412,-1.0332 -2.27893,-1.50939 -0.5648,-0.47619 -1.58927,-1.10311 -2.27659,-1.39315 -0.68736,-0.29005 -1.78416,-1.00132 -2.43736,-1.58059 -0.65324,-0.57923 -1.56044,-1.17106 -2.01605,-1.31515 -0.45559,-0.14408 -1.29397,-0.65517 -1.8631,-1.13576 -0.56911,-0.48059 -1.78648,-1.25861 -2.70536,-1.72887 -0.91884,-0.47026 -1.89971,-1.13381 -2.17968,-1.47451 -0.27998,-0.34075 -1.2357,-0.93291 -2.12385,-1.31595 -0.88815,-0.38305 -2.01724,-1.08384 -2.5091,-1.55728 -0.49187,-0.47349 -1.47052,-1.10398 -2.1748,-1.4011 -0.70428,-0.29713 -1.49903,-0.8062 -1.76613,-1.13122 -0.2671,-0.32506 -1.30061,-1.00661 -2.2967,-1.51454 -0.99608,-0.50796 -2.27317,-1.31418 -2.83798,-1.79166 -0.5648,-0.47749 -1.58529,-1.10376 -2.26773,-1.39175 -0.68244,-0.28803 -1.71408,-0.92586 -2.29252,-1.41743 -1.66221,-1.41267 -3.14798,-1.5166 -5.57053,-0.38973 -1.14286,0.53161 -3.80106,1.35373 -5.90711,1.82693 -2.10604,0.47322 -4.48073,1.1961 -5.27707,1.60641 -0.79634,0.41033 -2.77562,1.00033 -4.39838,1.31111 -1.62277,0.31074 -4.27558,1.14617 -5.89513,1.85643 -2.83492,1.24329 -2.99714,1.38015 -4.35314,3.67246 -0.77466,1.30958 -1.57014,2.99314 -1.76775,3.74124 -0.19759,0.74806 -0.77005,1.85322 -1.27213,2.45586 -0.50207,0.60264 -1.15998,1.93611 -1.46199,2.96327 -0.302,1.02716 -0.94006,2.46424 -1.4179,3.19352 -0.47783,0.72927 -1.12389,2.21228 -1.4357,3.29559 -0.31181,1.0833 -0.96901,2.52005 -1.46044,3.19283 -0.49142,0.67273 -1.06144,1.87779 -1.26669,2.67787 -0.20524,0.80009 -0.90517,2.34889 -1.55541,3.44181 -0.65022,1.09291 -1.38857,2.63745 -1.64077,3.4323 -0.25222,0.79484 -0.82227,1.93292 -1.26677,2.52906 -0.44452,0.59613 -1.06784,1.99239 -1.38517,3.10282 -0.31732,1.11045 -0.97169,2.55934 -1.45415,3.21983 -0.48247,0.66048 -1.13472,2.09551 -1.44944,3.18896 -0.31472,1.09342 -0.96745,2.57102 -1.45047,3.28349 -0.48302,0.71247 -1.11803,2.1083 -1.41113,3.10186 -0.31963,1.08352 -1.15896,2.52942 -2.09723,3.61294 l -1.56433,1.80648 -17.11917,0.0727 c -9.89714,0.042 -17.4626,-0.0688 -17.93326,-0.26281 z"
         id="path4146"
         inkscape:connector-curvature="0" />
      <path
         style="fill:#f05133"
         inkscape:connector-curvature="0"
         d="m 186.00902,263.47601 -49.745,-49.7389 c -2.8622,-2.8648 -7.5082,-2.8648 -10.374,0 l -10.329,10.33 13.102,13.102 c 3.0459,-1.0284 6.5371,-0.33888 8.9639,2.0884 2.4394,2.4424 3.124,5.9634 2.0698,9.0195 l 12.628,12.628 c 3.0551,-1.0528 6.58,-0.37262 9.0195,2.0712 3.4106,3.4096 3.4106,8.9345 0,12.345 -3.4111,3.4116 -8.936,3.4116 -12.349,0 -2.5645,-2.5665 -3.1988,-6.3345 -1.8999,-9.4942 l -11.777,-11.777 -0.001,30.991 c 0.8315,0.41162 1.6162,0.961 2.3091,1.6509 3.4096,3.4092 3.4096,8.9331 0,12.348 -3.4106,3.4091 -8.938,3.4091 -12.345,0 -3.4101,-3.4146 -3.4101,-8.9385 0,-12.348 0.84275,-0.84125 1.8179,-1.478 2.8584,-1.9048 l 0,-31.279 c -1.041,-0.425 -2.015,-1.057 -2.859,-1.905 -2.583,-2.581 -3.2051,-6.372 -1.8804,-9.5439 l -12.916,-12.918 -34.105997,34.105 c -2.8657,2.867 -2.8657,7.513 0,10.378 l 49.741997,49.739 c 2.8638,2.8648 7.5082,2.8648 10.376,0 l 49.512,-49.504 c 2.8648,-2.8662 2.8648,-7.5136 0,-10.379"
         id="path4160" />
    </g>
  </g>
  <g
     inkscape:groupmode="layer"
     id="layer2"
     inkscape:label="Text">
    <g
       transform="matrix(1.868384,0,0,1.868384,-263.9478,-258.75679)"
       id="g4178">
      <g
         id="g4190"
         transform="translate(-0.40358016,8.7615227)">
        <path
           style="fill:#ffffff;fill-opacity:1"
           inkscape:connector-curvature="0"
           d="m 237.81902,250.30501 c -5.985,0 -10.442,2.9389 -10.442,10.012 0,5.3291 2.9375,9.0284 10.12,9.0284 6.0875,0 10.222,-3.5869 10.222,-9.2485 0,-6.416 -3.7,-9.7915 -9.9,-9.7915 z m -11.97,49.94 c -1.4162,1.7382 -2.8275,3.585 -2.8275,5.7646 0,4.3482 5.545,5.6568 13.162,5.6568 6.31,0 14.905,-0.44188 14.905,-6.3085 0,-3.4869 -4.135,-3.7028 -9.36,-4.0304 l -15.88,-1.0825 z m 32.201,-49.611 c 1.955,2.5029 4.025,5.9848 4.025,10.989 0,12.075 -9.465,19.146 -23.169,19.146 -3.485,0 -6.64,-0.43412 -8.5962,-0.97712 l -3.5912,5.7648 10.66,0.65125 c 18.822,1.1992 29.915,1.7442 29.915,16.208 0,12.514 -10.985,19.581 -29.915,19.581 -19.69,0 -27.196,-5.0049 -27.196,-13.598 0,-4.8975 2.1762,-7.5025 5.9838,-11.098 -3.5912,-1.518 -4.7862,-4.2362 -4.7862,-7.1748 0,-2.395 1.195,-4.5702 3.1562,-6.6386 1.9575,-2.065 4.1325,-4.1348 6.7438,-6.5274 -5.33,-2.6104 -9.3562,-8.2676 -9.3562,-16.319 0,-12.509 8.2688,-21.1 24.91,-21.1 4.6788,0 7.5088,0.43062 10.011,1.0874 l 21.215,0 0,9.2446 -10.01,0.76175"
           id="path4154" />
        <path
           style="fill:#ffffff;fill-opacity:1"
           inkscape:connector-curvature="0"
           d="m 287.20902,230.86501 c -6.2025,0 -9.7912,-3.5932 -9.7912,-9.7964 0,-6.1954 3.5888,-9.5704 9.7912,-9.5704 6.31,0 9.9,3.375 9.9,9.5704 0,6.2031 -3.59,9.7964 -9.9,9.7964 z m -14.036,65.376 0,-8.5899 5.55,-0.75925 c 1.5238,-0.22075 1.74,-0.5445 1.74,-2.1802 l 0,-31.983 c 0,-1.1942 -0.325,-1.959 -1.4162,-2.2828 l -5.8738,-2.0688 1.1962,-8.8086 22.521,0 0,45.144 c 0,1.7438 0.105,1.9595 1.7412,2.1802 l 5.5488,0.75925 0,8.5899 -31.008,0"
           id="path4156" />
        <path
           style="fill:#ffffff;fill-opacity:1"
           inkscape:connector-curvature="0"
           d="m 347.19902,292.02501 c -4.68,2.2818 -11.532,4.3491 -17.736,4.3491 -12.945,0 -17.839,-5.2168 -17.839,-17.515 l 0,-28.5 c 0,-0.65138 0,-1.0884 -0.87375,-1.0884 l -7.6138,0 0,-9.6816 c 9.5762,-1.0908 13.381,-5.8784 14.578,-17.736 l 10.336,0 0,15.453 c 0,0.75875 0,1.0874 0.87125,1.0874 l 15.338,0 0,10.877 -16.209,0 0,25.999 c 0,6.4194 1.525,8.9194 7.3962,8.9194 3.05,0 6.2012,-0.75925 8.8125,-1.7392 l 2.94,9.5761"
           id="path4158" />
      </g>
    </g>
  </g>
</svg>
